<?xml version="1.0" encoding="utf-8"?>
<!-- Generator: Adobe Illustrator 18.1.1, SVG Export Plug-In . SVG Version: 6.00 Build 0)  -->
<svg version="1.1" id="Layer_1" xmlns:sketch="http://www.bohemiancoding.com/sketch/ns"
	 xmlns="http://www.w3.org/2000/svg" xmlns:xlink="http://www.w3.org/1999/xlink" x="0px" y="0px" viewBox="200 55 560 560"
	 enable-background="new 200 55 560 560" xml:space="preserve">
<title>icon_lightning_component_w_tile</title>
<desc>Created with Sketch.</desc>
<path id="Shape" sketch:type="MSShapeGroup" fill="#E1D950" d="M760,559c0,30.8-25.2,56-56,56H256c-30.8,0-56-25.2-56-56V111
	c0-30.8,25.2-56,56-56h448c30.8,0,56,25.2,56,56V559L760,559z"/>
<g>
	<g id="Layer_1_31_">
		<g>
			<path fill="#FFFFFF" d="M478.5,179.9c-70.8,0-128.4,55.7-128.4,124.1c0,44.4,18,70.8,31.3,90.3c8.2,12,12.8,19.1,12.8,26.3
				c0,16.1,8.6,31.3,24,42.6c0.4,9.5,1.8,32.9,1.8,32.9c0,0,0,0,0,0c0.3,6.6,3.7,20.2,26.5,27.8c2.7,4,6.2,7.5,10.5,10.3
				c2.7,1.8,5.8,2.8,9.1,2.8h24.9c3.2,0,6.4-1,9.1-2.8c4.3-2.9,7.8-6.4,10.5-10.3c23-7.7,26.4-21.4,26.5-27.8c0,0,1.4-23.3,1.8-32.8
				c15.3-11.4,24-26.5,24-42.6c0-7.2,4.6-14.3,12.9-26.4c13.2-19.3,31.2-45.7,31.2-90.2C606.9,235.6,549.3,179.9,478.5,179.9z
				 M548.7,376c-9.5,13.9-18.4,27-18.4,44.6c0,7.7-7,13.9-12.2,17.5h-79.3c-5.2-3.6-12.2-9.8-12.2-17.5c0-17.5-9-30.7-18.5-44.7
				c-12-17.6-25.5-37.5-25.5-71.8c0-50.5,43-91.6,95.9-91.7c52.9,0,95.9,41.1,95.9,91.6C574.4,338.4,560.8,358.3,548.7,376z"/>
			<path fill="#FFFFFF" d="M478.5,155.5c4.5,0,8.1-3.6,8.1-8.1v-24.3c0-4.5-3.6-8.1-8.1-8.1c-4.5,0-8.1,3.6-8.1,8.1v24.3
				C470.4,151.9,474,155.5,478.5,155.5z"/>
			<path fill="#FFFFFF" d="M392.3,172.7c1.5,2.6,4.2,4.1,7,4.1c1.4,0,2.8-0.4,4-1.1c3.9-2.2,5.2-7.2,3-11.1l-12.2-21.1
				c-2.2-3.9-7.2-5.2-11.1-3c-3.9,2.2-5.2,7.2-3,11.1L392.3,172.7z"/>
			<path fill="#FFFFFF" d="M345.4,219.6l-21.1-12.2c-3.9-2.2-8.8-0.9-11.1,3c-2.2,3.9-0.9,8.8,3,11.1l21.1,12.2
				c1.3,0.7,2.7,1.1,4,1.1c2.8,0,5.5-1.5,7-4.1C350.6,226.8,349.3,221.8,345.4,219.6z"/>
			<path fill="#FFFFFF" d="M328.2,305.8c0-4.5-3.6-8.1-8.1-8.1h-24.3c-4.5,0-8.1,3.6-8.1,8.1s3.6,8.1,8.1,8.1h24.3
				C324.6,313.9,328.2,310.3,328.2,305.8z"/>
			<path fill="#FFFFFF" d="M337.3,378l-21.1,12.2c-3.9,2.2-5.2,7.2-3,11.1c1.5,2.6,4.2,4.1,7,4.1c1.4,0,2.8-0.4,4-1.1l21.1-12.2
				c3.9-2.2,5.2-7.2,3-11.1C346.1,377,341.2,375.7,337.3,378z"/>
			<path fill="#FFFFFF" d="M640.8,390.1L619.7,378c-3.9-2.2-8.8-0.9-11.1,3c-2.2,3.9-0.9,8.8,3,11.1l21.1,12.2
				c1.3,0.7,2.7,1.1,4,1.1c2.8,0,5.5-1.5,7-4C646,397.3,644.7,392.4,640.8,390.1z"/>
			<path fill="#FFFFFF" d="M661.2,297.7l-24.3,0l0,0c-4.5,0-8.1,3.6-8.1,8.1c0,4.5,3.6,8.1,8.1,8.1l24.3,0l0,0
				c4.5,0,8.1-3.6,8.1-8.1C669.3,301.3,665.7,297.7,661.2,297.7z"/>
			<path fill="#FFFFFF" d="M615.6,234.7c1.4,0,2.8-0.4,4-1.1l21.1-12.2c3.9-2.2,5.2-7.2,3-11.1c-2.2-3.9-7.2-5.2-11.1-3l-21.1,12.2
				c-3.9,2.2-5.2,7.2-3,11.1C610.1,233.3,612.9,234.7,615.6,234.7z"/>
			<path fill="#FFFFFF" d="M553.6,175.7c1.3,0.7,2.7,1.1,4,1.1c2.8,0,5.5-1.5,7-4.1l12.2-21.1c2.2-3.9,0.9-8.8-3-11.1
				c-3.9-2.3-8.8-0.9-11.1,3l-12.2,21.1C548.4,168.5,549.8,173.4,553.6,175.7z"/>
			<path fill="#FFFFFF" d="M467.6,354.8c1,7.2,4.5,9.2,10.9,9.2c6.4,0,9.9-2,10.9-9.2l7.7-57.9c0.5-4,1-7.9,1-11.6v-28.7
				c0-12.6-7.2-19.1-19.5-19.1c-12.4,0-19.5,6.4-19.5,19.1v28.7c0,3.7,0.5,7.7,1,11.6L467.6,354.8z"/>
			<path fill="#FFFFFF" d="M478.5,380c-11.1,0-20.3,9.2-20.3,20.3c0,11.1,9.2,20.3,20.3,20.3c11.1,0,20.3-9.1,20.3-20.3
				C498.8,389.2,489.6,380,478.5,380z"/>
		</g>
	</g>
</g>
</svg>
